<svg width="100" height="100" viewBox="0 0 100 100" fill="none" xmlns="http://www.w3.org/2000/svg">
<path d="M50.0001 87.5C70.7107 87.5 87.5001 70.7107 87.5001 50C87.5001 29.2893 70.7107 12.5 50.0001 12.5C29.2894 12.5 12.5001 29.2893 12.5001 50C12.5001 70.7107 29.2894 87.5 50.0001 87.5Z" stroke="#0061FF" stroke-width="8.33333" stroke-linecap="round" stroke-linejoin="round"/>
<path d="M39.5834 63.5417C40.9412 62.1558 42.5619 61.0549 44.3506 60.3033C46.1392 59.5517 48.0599 59.1645 50.0001 59.1645C51.9402 59.1645 53.8609 59.5517 55.6495 60.3033C57.4382 61.0549 59.0589 62.1558 60.4167 63.5417M37.5001 41.6667H37.5417H37.5001ZM62.5001 41.6667H62.5417H62.5001Z" stroke="#0061FF" stroke-width="8.33333" stroke-linecap="round" stroke-linejoin="round"/>
</svg>
