<svg width="100" height="100" viewBox="0 0 100 100" fill="none" xmlns="http://www.w3.org/2000/svg">
<path d="M20.8333 79.1667H79.1666C80.5263 79.1571 81.8629 78.8151 83.0599 78.1703C84.257 77.5256 85.2781 76.5977 86.0342 75.4677C86.7903 74.3376 87.2584 73.0398 87.3977 71.6873C87.537 70.3348 87.3432 68.9688 86.8333 67.7083L57.25 16.6667C56.5293 15.3642 55.4729 14.2785 54.1906 13.5225C52.9083 12.7664 51.4469 12.3677 49.9583 12.3677C48.4697 12.3677 47.0083 12.7664 45.726 13.5225C44.4437 14.2785 43.3873 15.3642 42.6666 16.6667L13.0833 67.7083C12.5831 68.9399 12.3847 70.2733 12.5048 71.5971C12.6248 72.921 13.0599 74.1969 13.7735 75.3184C14.4872 76.4398 15.4588 77.3743 16.6072 78.0438C17.7556 78.7132 19.0475 79.0982 20.375 79.1667M50 37.5V45.8333V37.5ZM50 62.5V62.5417V62.5Z" stroke="#E74040" stroke-width="8.33333" stroke-linecap="round" stroke-linejoin="round"/>
</svg>
